<mxfile host="www.draw.io" modified="2020-01-04T11:02:23.440Z" agent="Mozilla/5.0 (Macintosh; Intel Mac OS X 10_14_0) AppleWebKit/537.36 (KHTML, like Gecko) Chrome/79.0.3945.88 Safari/537.36" etag="IwrDtak3pmfsOAaZOjzr" version="12.4.8" type="github">
  <diagram id="zN97RrOtZqz6y1eVa5Ov" name="Page-1">
    <mxGraphModel dx="1186" dy="741" grid="1" gridSize="10" guides="1" tooltips="1" connect="1" arrows="1" fold="1" page="1" pageScale="1" pageWidth="827" pageHeight="1169" math="0" shadow="0">
      <root>
        <mxCell id="0"/>
        <mxCell id="1" parent="0"/>
        <mxCell id="Sj3TVZAS6EbvMV6zD9ND-1" value="Mediator" style="swimlane;fontStyle=1;align=center;verticalAlign=top;childLayout=stackLayout;horizontal=1;startSize=26;horizontalStack=0;resizeParent=1;resizeParentMax=0;resizeLast=0;collapsible=1;marginBottom=0;fillColor=#F08E81;fontColor=#FFFFFF;" vertex="1" parent="1">
          <mxGeometry x="333" y="480" width="160" height="79" as="geometry"/>
        </mxCell>
        <mxCell id="Sj3TVZAS6EbvMV6zD9ND-2" value="+ field: type" style="text;strokeColor=none;fillColor=#F08E81;align=left;verticalAlign=top;spacingLeft=4;spacingRight=4;overflow=hidden;rotatable=0;points=[[0,0.5],[1,0.5]];portConstraint=eastwest;fontColor=#FFFFFF;" vertex="1" parent="Sj3TVZAS6EbvMV6zD9ND-1">
          <mxGeometry y="26" width="160" height="26" as="geometry"/>
        </mxCell>
        <mxCell id="Sj3TVZAS6EbvMV6zD9ND-3" value="" style="line;strokeWidth=1;fillColor=#F08E81;align=left;verticalAlign=middle;spacingTop=-1;spacingLeft=3;spacingRight=3;rotatable=0;labelPosition=right;points=[];portConstraint=eastwest;fontColor=#FFFFFF;" vertex="1" parent="Sj3TVZAS6EbvMV6zD9ND-1">
          <mxGeometry y="52" width="160" height="1" as="geometry"/>
        </mxCell>
        <mxCell id="Sj3TVZAS6EbvMV6zD9ND-4" value="+ method(type): type" style="text;strokeColor=none;fillColor=#F08E81;align=left;verticalAlign=top;spacingLeft=4;spacingRight=4;overflow=hidden;rotatable=0;points=[[0,0.5],[1,0.5]];portConstraint=eastwest;fontColor=#FFFFFF;" vertex="1" parent="Sj3TVZAS6EbvMV6zD9ND-1">
          <mxGeometry y="53" width="160" height="26" as="geometry"/>
        </mxCell>
        <mxCell id="Sj3TVZAS6EbvMV6zD9ND-5" value="«abstarct»&#xa;College" style="swimlane;fontStyle=1;align=center;verticalAlign=top;childLayout=stackLayout;horizontal=1;startSize=41;horizontalStack=0;resizeParent=1;resizeParentMax=0;resizeLast=0;collapsible=1;marginBottom=0;fillColor=#F08E81;fontColor=#FFFFFF;" vertex="1" parent="1">
          <mxGeometry x="333" y="50" width="160" height="120" as="geometry"/>
        </mxCell>
        <mxCell id="Sj3TVZAS6EbvMV6zD9ND-6" value="- mediator: Mediator" style="text;strokeColor=none;fillColor=#F08E81;align=left;verticalAlign=top;spacingLeft=4;spacingRight=4;overflow=hidden;rotatable=0;points=[[0,0.5],[1,0.5]];portConstraint=eastwest;fontColor=#FFFFFF;" vertex="1" parent="Sj3TVZAS6EbvMV6zD9ND-5">
          <mxGeometry y="41" width="160" height="26" as="geometry"/>
        </mxCell>
        <mxCell id="Sj3TVZAS6EbvMV6zD9ND-7" value="" style="line;strokeWidth=1;fillColor=#F08E81;align=left;verticalAlign=middle;spacingTop=-1;spacingLeft=3;spacingRight=3;rotatable=0;labelPosition=right;points=[];portConstraint=eastwest;fontColor=#FFFFFF;" vertex="1" parent="Sj3TVZAS6EbvMV6zD9ND-5">
          <mxGeometry y="67" width="160" height="1" as="geometry"/>
        </mxCell>
        <mxCell id="Sj3TVZAS6EbvMV6zD9ND-8" value="+ College(Mediator)" style="text;strokeColor=none;fillColor=#F08E81;align=left;verticalAlign=top;spacingLeft=4;spacingRight=4;overflow=hidden;rotatable=0;points=[[0,0.5],[1,0.5]];portConstraint=eastwest;fontColor=#FFFFFF;" vertex="1" parent="Sj3TVZAS6EbvMV6zD9ND-5">
          <mxGeometry y="68" width="160" height="26" as="geometry"/>
        </mxCell>
        <mxCell id="Sj3TVZAS6EbvMV6zD9ND-21" value="+ action()" style="text;strokeColor=none;fillColor=#F08E81;align=left;verticalAlign=top;spacingLeft=4;spacingRight=4;overflow=hidden;rotatable=0;points=[[0,0.5],[1,0.5]];portConstraint=eastwest;fontColor=#FFFFFF;" vertex="1" parent="Sj3TVZAS6EbvMV6zD9ND-5">
          <mxGeometry y="94" width="160" height="26" as="geometry"/>
        </mxCell>
        <mxCell id="Sj3TVZAS6EbvMV6zD9ND-9" value="ConcreteCollegeA" style="swimlane;fontStyle=1;align=center;verticalAlign=top;childLayout=stackLayout;horizontal=1;startSize=26;horizontalStack=0;resizeParent=1;resizeParentMax=0;resizeLast=0;collapsible=1;marginBottom=0;fillColor=#F08E81;fontColor=#FFFFFF;" vertex="1" parent="1">
          <mxGeometry x="143" y="270" width="190" height="80" as="geometry"/>
        </mxCell>
        <mxCell id="Sj3TVZAS6EbvMV6zD9ND-11" value="" style="line;strokeWidth=1;fillColor=#F08E81;align=left;verticalAlign=middle;spacingTop=-1;spacingLeft=3;spacingRight=3;rotatable=0;labelPosition=right;points=[];portConstraint=eastwest;fontColor=#FFFFFF;" vertex="1" parent="Sj3TVZAS6EbvMV6zD9ND-9">
          <mxGeometry y="26" width="190" height="1" as="geometry"/>
        </mxCell>
        <mxCell id="Sj3TVZAS6EbvMV6zD9ND-12" value="+ ConcreteCollegeA(Mediator)" style="text;strokeColor=none;fillColor=#F08E81;align=left;verticalAlign=top;spacingLeft=4;spacingRight=4;overflow=hidden;rotatable=0;points=[[0,0.5],[1,0.5]];portConstraint=eastwest;fontColor=#FFFFFF;" vertex="1" parent="Sj3TVZAS6EbvMV6zD9ND-9">
          <mxGeometry y="27" width="190" height="26" as="geometry"/>
        </mxCell>
        <mxCell id="Sj3TVZAS6EbvMV6zD9ND-24" value="+ action()" style="text;strokeColor=none;fillColor=#F08E81;align=left;verticalAlign=top;spacingLeft=4;spacingRight=4;overflow=hidden;rotatable=0;points=[[0,0.5],[1,0.5]];portConstraint=eastwest;fontColor=#FFFFFF;" vertex="1" parent="Sj3TVZAS6EbvMV6zD9ND-9">
          <mxGeometry y="53" width="190" height="27" as="geometry"/>
        </mxCell>
        <mxCell id="Sj3TVZAS6EbvMV6zD9ND-17" value="«abstarct»&#xa;Mediator" style="swimlane;fontStyle=1;align=center;verticalAlign=top;childLayout=stackLayout;horizontal=1;startSize=41;horizontalStack=0;resizeParent=1;resizeParentMax=0;resizeLast=0;collapsible=1;marginBottom=0;fillColor=#F08E81;fontColor=#FFFFFF;" vertex="1" parent="1">
          <mxGeometry x="284.5" y="660" width="257" height="172" as="geometry"/>
        </mxCell>
        <mxCell id="Sj3TVZAS6EbvMV6zD9ND-32" value="- collegeA: ConcreteCollegeA" style="text;strokeColor=none;fillColor=#F08E81;align=left;verticalAlign=top;spacingLeft=4;spacingRight=4;overflow=hidden;rotatable=0;points=[[0,0.5],[1,0.5]];portConstraint=eastwest;fontColor=#FFFFFF;" vertex="1" parent="Sj3TVZAS6EbvMV6zD9ND-17">
          <mxGeometry y="41" width="257" height="26" as="geometry"/>
        </mxCell>
        <mxCell id="Sj3TVZAS6EbvMV6zD9ND-18" value="- collegeB: ConcreteCollegeB" style="text;strokeColor=none;fillColor=#F08E81;align=left;verticalAlign=top;spacingLeft=4;spacingRight=4;overflow=hidden;rotatable=0;points=[[0,0.5],[1,0.5]];portConstraint=eastwest;fontColor=#FFFFFF;" vertex="1" parent="Sj3TVZAS6EbvMV6zD9ND-17">
          <mxGeometry y="67" width="257" height="26" as="geometry"/>
        </mxCell>
        <mxCell id="Sj3TVZAS6EbvMV6zD9ND-19" value="" style="line;strokeWidth=1;fillColor=#F08E81;align=left;verticalAlign=middle;spacingTop=-1;spacingLeft=3;spacingRight=3;rotatable=0;labelPosition=right;points=[];portConstraint=eastwest;fontColor=#FFFFFF;" vertex="1" parent="Sj3TVZAS6EbvMV6zD9ND-17">
          <mxGeometry y="93" width="257" height="1" as="geometry"/>
        </mxCell>
        <mxCell id="Sj3TVZAS6EbvMV6zD9ND-20" value="+ setConcreteCollegeA(ConcreteCollegeA)" style="text;strokeColor=none;fillColor=#F08E81;align=left;verticalAlign=top;spacingLeft=4;spacingRight=4;overflow=hidden;rotatable=0;points=[[0,0.5],[1,0.5]];portConstraint=eastwest;fontColor=#FFFFFF;" vertex="1" parent="Sj3TVZAS6EbvMV6zD9ND-17">
          <mxGeometry y="94" width="257" height="26" as="geometry"/>
        </mxCell>
        <mxCell id="Sj3TVZAS6EbvMV6zD9ND-35" value="+ setConcreteCollegeB(ConcreteCollegeB)" style="text;strokeColor=none;fillColor=#F08E81;align=left;verticalAlign=top;spacingLeft=4;spacingRight=4;overflow=hidden;rotatable=0;points=[[0,0.5],[1,0.5]];portConstraint=eastwest;fontColor=#FFFFFF;" vertex="1" parent="Sj3TVZAS6EbvMV6zD9ND-17">
          <mxGeometry y="120" width="257" height="26" as="geometry"/>
        </mxCell>
        <mxCell id="Sj3TVZAS6EbvMV6zD9ND-33" value="+ method()" style="text;strokeColor=none;fillColor=#F08E81;align=left;verticalAlign=top;spacingLeft=4;spacingRight=4;overflow=hidden;rotatable=0;points=[[0,0.5],[1,0.5]];portConstraint=eastwest;fontColor=#FFFFFF;" vertex="1" parent="Sj3TVZAS6EbvMV6zD9ND-17">
          <mxGeometry y="146" width="257" height="26" as="geometry"/>
        </mxCell>
        <mxCell id="Sj3TVZAS6EbvMV6zD9ND-26" value="ConcreteCollegeB" style="swimlane;fontStyle=1;align=center;verticalAlign=top;childLayout=stackLayout;horizontal=1;startSize=26;horizontalStack=0;resizeParent=1;resizeParentMax=0;resizeLast=0;collapsible=1;marginBottom=0;fillColor=#F08E81;fontColor=#FFFFFF;" vertex="1" parent="1">
          <mxGeometry x="493" y="270" width="190" height="80" as="geometry"/>
        </mxCell>
        <mxCell id="Sj3TVZAS6EbvMV6zD9ND-27" value="" style="line;strokeWidth=1;fillColor=#F08E81;align=left;verticalAlign=middle;spacingTop=-1;spacingLeft=3;spacingRight=3;rotatable=0;labelPosition=right;points=[];portConstraint=eastwest;fontColor=#FFFFFF;" vertex="1" parent="Sj3TVZAS6EbvMV6zD9ND-26">
          <mxGeometry y="26" width="190" height="1" as="geometry"/>
        </mxCell>
        <mxCell id="Sj3TVZAS6EbvMV6zD9ND-28" value="+ ConcreteCollegeB(Mediator)" style="text;strokeColor=none;fillColor=#F08E81;align=left;verticalAlign=top;spacingLeft=4;spacingRight=4;overflow=hidden;rotatable=0;points=[[0,0.5],[1,0.5]];portConstraint=eastwest;fontColor=#FFFFFF;" vertex="1" parent="Sj3TVZAS6EbvMV6zD9ND-26">
          <mxGeometry y="27" width="190" height="26" as="geometry"/>
        </mxCell>
        <mxCell id="Sj3TVZAS6EbvMV6zD9ND-29" value="+ action()" style="text;strokeColor=none;fillColor=#F08E81;align=left;verticalAlign=top;spacingLeft=4;spacingRight=4;overflow=hidden;rotatable=0;points=[[0,0.5],[1,0.5]];portConstraint=eastwest;fontColor=#FFFFFF;" vertex="1" parent="Sj3TVZAS6EbvMV6zD9ND-26">
          <mxGeometry y="53" width="190" height="27" as="geometry"/>
        </mxCell>
        <mxCell id="Sj3TVZAS6EbvMV6zD9ND-30" value="Extends" style="endArrow=block;endSize=16;endFill=0;html=1;fontColor=#000000;entryX=0.5;entryY=1;entryDx=0;entryDy=0;exitX=0.5;exitY=0;exitDx=0;exitDy=0;edgeStyle=orthogonalEdgeStyle;" edge="1" parent="1" source="Sj3TVZAS6EbvMV6zD9ND-9" target="Sj3TVZAS6EbvMV6zD9ND-5">
          <mxGeometry width="160" relative="1" as="geometry">
            <mxPoint x="200" y="450" as="sourcePoint"/>
            <mxPoint x="360" y="450" as="targetPoint"/>
          </mxGeometry>
        </mxCell>
        <mxCell id="Sj3TVZAS6EbvMV6zD9ND-31" value="Extends" style="endArrow=block;endSize=16;endFill=0;html=1;fontColor=#000000;entryX=0.5;entryY=1;entryDx=0;entryDy=0;exitX=0.5;exitY=0;exitDx=0;exitDy=0;edgeStyle=orthogonalEdgeStyle;" edge="1" parent="1" source="Sj3TVZAS6EbvMV6zD9ND-26" target="Sj3TVZAS6EbvMV6zD9ND-5">
          <mxGeometry width="160" relative="1" as="geometry">
            <mxPoint x="60" y="490" as="sourcePoint"/>
            <mxPoint x="220" y="490" as="targetPoint"/>
          </mxGeometry>
        </mxCell>
        <mxCell id="Sj3TVZAS6EbvMV6zD9ND-36" value="" style="endArrow=open;endFill=1;endSize=12;html=1;fontColor=#000000;entryX=0.5;entryY=1;entryDx=0;entryDy=0;exitX=0.5;exitY=0;exitDx=0;exitDy=0;edgeStyle=orthogonalEdgeStyle;" edge="1" parent="1" source="Sj3TVZAS6EbvMV6zD9ND-1" target="Sj3TVZAS6EbvMV6zD9ND-9">
          <mxGeometry width="160" relative="1" as="geometry">
            <mxPoint x="50" y="620" as="sourcePoint"/>
            <mxPoint x="210" y="620" as="targetPoint"/>
            <Array as="points">
              <mxPoint x="413" y="420"/>
              <mxPoint x="238" y="420"/>
            </Array>
          </mxGeometry>
        </mxCell>
        <mxCell id="Sj3TVZAS6EbvMV6zD9ND-37" value="" style="endArrow=open;endFill=1;endSize=12;html=1;fontColor=#000000;entryX=0.568;entryY=1.111;entryDx=0;entryDy=0;entryPerimeter=0;exitX=0.5;exitY=0;exitDx=0;exitDy=0;edgeStyle=orthogonalEdgeStyle;" edge="1" parent="1" source="Sj3TVZAS6EbvMV6zD9ND-1" target="Sj3TVZAS6EbvMV6zD9ND-29">
          <mxGeometry width="160" relative="1" as="geometry">
            <mxPoint x="80" y="610" as="sourcePoint"/>
            <mxPoint x="240" y="610" as="targetPoint"/>
            <Array as="points">
              <mxPoint x="413" y="420"/>
              <mxPoint x="601" y="420"/>
            </Array>
          </mxGeometry>
        </mxCell>
        <mxCell id="Sj3TVZAS6EbvMV6zD9ND-38" value="Extends" style="endArrow=block;endSize=16;endFill=0;html=1;fontColor=#000000;entryX=0.5;entryY=0;entryDx=0;entryDy=0;exitX=0.5;exitY=1;exitDx=0;exitDy=0;" edge="1" parent="1" source="Sj3TVZAS6EbvMV6zD9ND-1" target="Sj3TVZAS6EbvMV6zD9ND-17">
          <mxGeometry width="160" relative="1" as="geometry">
            <mxPoint x="40" y="580" as="sourcePoint"/>
            <mxPoint x="200" y="580" as="targetPoint"/>
          </mxGeometry>
        </mxCell>
      </root>
    </mxGraphModel>
  </diagram>
</mxfile>
